<?xml version="1.0" encoding="utf-8" standalone="no"?>
<!DOCTYPE svg PUBLIC "-//W3C//DTD SVG 1.1//EN"
  "http://www.w3.org/Graphics/SVG/1.1/DTD/svg11.dtd">
<svg xmlns:xlink="http://www.w3.org/1999/xlink" width="928.156875pt" height="351.441029pt" viewBox="0 0 928.156875 351.441029" xmlns="http://www.w3.org/2000/svg" version="1.1">
 <metadata>
  <rdf:RDF xmlns:dc="http://purl.org/dc/elements/1.1/" xmlns:cc="http://creativecommons.org/ns#" xmlns:rdf="http://www.w3.org/1999/02/22-rdf-syntax-ns#">
   <cc:Work>
    <dc:type rdf:resource="http://purl.org/dc/dcmitype/StillImage"/>
    <dc:date>2025-05-29T21:52:15.285414</dc:date>
    <dc:format>image/svg+xml</dc:format>
    <dc:creator>
     <cc:Agent>
      <dc:title>Matplotlib v3.7.1, https://matplotlib.org/</dc:title>
     </cc:Agent>
    </dc:creator>
   </cc:Work>
  </rdf:RDF>
 </metadata>
 <defs>
  <style type="text/css">*{stroke-linejoin: round; stroke-linecap: butt}</style>
 </defs>
 <g id="figure_1">
  <g id="patch_1">
   <path d="M 0 351.441029 
L 928.156875 351.441029 
L 928.156875 0 
L 0 0 
z
" style="fill: #ffffff"/>
  </g>
  <g id="axes_1">
   <g id="patch_2">
    <path d="M 46.965625 300.648589 
L 884.375625 300.648589 
L 884.375625 22.318125 
L 46.965625 22.318125 
z
" style="fill: #ffffff"/>
   </g>
   <g id="patch_3">
    <path d="M 85.029716 300.648589 
L 112.498647 300.648589 
L 112.498647 63.229425 
L 85.029716 63.229425 
z
" clip-path="url(#p46616f5c9c)" style="fill: #2e8b57; opacity: 0.7"/>
   </g>
   <g id="patch_4">
    <path d="M 163.512378 300.648589 
L 190.981309 300.648589 
L 190.981309 35.571957 
L 163.512378 35.571957 
z
" clip-path="url(#p46616f5c9c)" style="fill: #2e8b57; opacity: 0.7"/>
   </g>
   <g id="patch_5">
    <path d="M 241.995039 300.648589 
L 269.463971 300.648589 
L 269.463971 110.153893 
L 241.995039 110.153893 
z
" clip-path="url(#p46616f5c9c)" style="fill: #2e8b57; opacity: 0.7"/>
   </g>
   <g id="patch_6">
    <path d="M 320.477701 300.648589 
L 347.946632 300.648589 
L 347.946632 134.082264 
L 320.477701 134.082264 
z
" clip-path="url(#p46616f5c9c)" style="fill: #2e8b57; opacity: 0.7"/>
   </g>
   <g id="patch_7">
    <path d="M 398.960363 300.648589 
L 426.429294 300.648589 
L 426.429294 76.281264 
L 398.960363 76.281264 
z
" clip-path="url(#p46616f5c9c)" style="fill: #2e8b57; opacity: 0.7"/>
   </g>
   <g id="patch_8">
    <path d="M 477.443024 300.648589 
L 504.911956 300.648589 
L 504.911956 122.273458 
L 477.443024 122.273458 
z
" clip-path="url(#p46616f5c9c)" style="fill: #2e8b57; opacity: 0.7"/>
   </g>
   <g id="patch_9">
    <path d="M 555.925686 300.648589 
L 583.394618 300.648589 
L 583.394618 54.528199 
L 555.925686 54.528199 
z
" clip-path="url(#p46616f5c9c)" style="fill: #2e8b57; opacity: 0.7"/>
   </g>
   <g id="patch_10">
    <path d="M 634.408348 300.648589 
L 661.877279 300.648589 
L 661.877279 44.894699 
L 634.408348 44.894699 
z
" clip-path="url(#p46616f5c9c)" style="fill: #2e8b57; opacity: 0.7"/>
   </g>
   <g id="patch_11">
    <path d="M 712.891009 300.648589 
L 740.359941 300.648589 
L 740.359941 41.165602 
L 712.891009 41.165602 
z
" clip-path="url(#p46616f5c9c)" style="fill: #2e8b57; opacity: 0.7"/>
   </g>
   <g id="patch_12">
    <path d="M 791.373671 300.648589 
L 818.842603 300.648589 
L 818.842603 58.568054 
L 791.373671 58.568054 
z
" clip-path="url(#p46616f5c9c)" style="fill: #2e8b57; opacity: 0.7"/>
   </g>
   <g id="patch_13">
    <path d="M 112.498647 300.648589 
L 139.967579 300.648589 
L 139.967579 227.309685 
L 112.498647 227.309685 
z
" clip-path="url(#p46616f5c9c)" style="fill: #ff8c00; opacity: 0.7"/>
   </g>
   <g id="patch_14">
    <path d="M 190.981309 300.648589 
L 218.450241 300.648589 
L 218.450241 254.967153 
L 190.981309 254.967153 
z
" clip-path="url(#p46616f5c9c)" style="fill: #ff8c00; opacity: 0.7"/>
   </g>
   <g id="patch_15">
    <path d="M 269.463971 300.648589 
L 296.932902 300.648589 
L 296.932902 180.385216 
L 269.463971 180.385216 
z
" clip-path="url(#p46616f5c9c)" style="fill: #ff8c00; opacity: 0.7"/>
   </g>
   <g id="patch_16">
    <path d="M 347.946632 300.648589 
L 375.415564 300.648589 
L 375.415564 156.456845 
L 347.946632 156.456845 
z
" clip-path="url(#p46616f5c9c)" style="fill: #ff8c00; opacity: 0.7"/>
   </g>
   <g id="patch_17">
    <path d="M 426.429294 300.648589 
L 453.898226 300.648589 
L 453.898226 214.257846 
L 426.429294 214.257846 
z
" clip-path="url(#p46616f5c9c)" style="fill: #ff8c00; opacity: 0.7"/>
   </g>
   <g id="patch_18">
    <path d="M 504.911956 300.648589 
L 532.380887 300.648589 
L 532.380887 168.265652 
L 504.911956 168.265652 
z
" clip-path="url(#p46616f5c9c)" style="fill: #ff8c00; opacity: 0.7"/>
   </g>
   <g id="patch_19">
    <path d="M 583.394618 300.648589 
L 610.863549 300.648589 
L 610.863549 236.010911 
L 583.394618 236.010911 
z
" clip-path="url(#p46616f5c9c)" style="fill: #ff8c00; opacity: 0.7"/>
   </g>
   <g id="patch_20">
    <path d="M 661.877279 300.648589 
L 689.346211 300.648589 
L 689.346211 245.644411 
L 661.877279 245.644411 
z
" clip-path="url(#p46616f5c9c)" style="fill: #ff8c00; opacity: 0.7"/>
   </g>
   <g id="patch_21">
    <path d="M 740.359941 300.648589 
L 767.828872 300.648589 
L 767.828872 249.373508 
L 740.359941 249.373508 
z
" clip-path="url(#p46616f5c9c)" style="fill: #ff8c00; opacity: 0.7"/>
   </g>
   <g id="patch_22">
    <path d="M 818.842603 300.648589 
L 846.311534 300.648589 
L 846.311534 231.971056 
L 818.842603 231.971056 
z
" clip-path="url(#p46616f5c9c)" style="fill: #ff8c00; opacity: 0.7"/>
   </g>
   <g id="matplotlib.axis_1">
    <g id="xtick_1">
     <g id="line2d_1">
      <defs>
       <path id="m07fd57eb96" d="M 0 0 
L 0 3.5 
" style="stroke: #000000; stroke-width: 0.8"/>
      </defs>
      <g>
       <use xlink:href="#m07fd57eb96" x="112.498647" y="300.648589" style="stroke: #000000; stroke-width: 0.8"/>
      </g>
     </g>
     <g id="text_1">
      <!-- airplane -->
      <g transform="translate(96.227655 334.610279) rotate(-30) scale(0.1 -0.1)">
       <defs>
        <path id="DejaVuSans-61" d="M 2194 1759 
Q 1497 1759 1228 1600 
Q 959 1441 959 1056 
Q 959 750 1161 570 
Q 1363 391 1709 391 
Q 2188 391 2477 730 
Q 2766 1069 2766 1631 
L 2766 1759 
L 2194 1759 
z
M 3341 1997 
L 3341 0 
L 2766 0 
L 2766 531 
Q 2569 213 2275 61 
Q 1981 -91 1556 -91 
Q 1019 -91 701 211 
Q 384 513 384 1019 
Q 384 1609 779 1909 
Q 1175 2209 1959 2209 
L 2766 2209 
L 2766 2266 
Q 2766 2663 2505 2880 
Q 2244 3097 1772 3097 
Q 1472 3097 1187 3025 
Q 903 2953 641 2809 
L 641 3341 
Q 956 3463 1253 3523 
Q 1550 3584 1831 3584 
Q 2591 3584 2966 3190 
Q 3341 2797 3341 1997 
z
" transform="scale(0.015625)"/>
        <path id="DejaVuSans-69" d="M 603 3500 
L 1178 3500 
L 1178 0 
L 603 0 
L 603 3500 
z
M 603 4863 
L 1178 4863 
L 1178 4134 
L 603 4134 
L 603 4863 
z
" transform="scale(0.015625)"/>
        <path id="DejaVuSans-72" d="M 2631 2963 
Q 2534 3019 2420 3045 
Q 2306 3072 2169 3072 
Q 1681 3072 1420 2755 
Q 1159 2438 1159 1844 
L 1159 0 
L 581 0 
L 581 3500 
L 1159 3500 
L 1159 2956 
Q 1341 3275 1631 3429 
Q 1922 3584 2338 3584 
Q 2397 3584 2469 3576 
Q 2541 3569 2628 3553 
L 2631 2963 
z
" transform="scale(0.015625)"/>
        <path id="DejaVuSans-70" d="M 1159 525 
L 1159 -1331 
L 581 -1331 
L 581 3500 
L 1159 3500 
L 1159 2969 
Q 1341 3281 1617 3432 
Q 1894 3584 2278 3584 
Q 2916 3584 3314 3078 
Q 3713 2572 3713 1747 
Q 3713 922 3314 415 
Q 2916 -91 2278 -91 
Q 1894 -91 1617 61 
Q 1341 213 1159 525 
z
M 3116 1747 
Q 3116 2381 2855 2742 
Q 2594 3103 2138 3103 
Q 1681 3103 1420 2742 
Q 1159 2381 1159 1747 
Q 1159 1113 1420 752 
Q 1681 391 2138 391 
Q 2594 391 2855 752 
Q 3116 1113 3116 1747 
z
" transform="scale(0.015625)"/>
        <path id="DejaVuSans-6c" d="M 603 4863 
L 1178 4863 
L 1178 0 
L 603 0 
L 603 4863 
z
" transform="scale(0.015625)"/>
        <path id="DejaVuSans-6e" d="M 3513 2113 
L 3513 0 
L 2938 0 
L 2938 2094 
Q 2938 2591 2744 2837 
Q 2550 3084 2163 3084 
Q 1697 3084 1428 2787 
Q 1159 2491 1159 1978 
L 1159 0 
L 581 0 
L 581 3500 
L 1159 3500 
L 1159 2956 
Q 1366 3272 1645 3428 
Q 1925 3584 2291 3584 
Q 2894 3584 3203 3211 
Q 3513 2838 3513 2113 
z
" transform="scale(0.015625)"/>
        <path id="DejaVuSans-65" d="M 3597 1894 
L 3597 1613 
L 953 1613 
Q 991 1019 1311 708 
Q 1631 397 2203 397 
Q 2534 397 2845 478 
Q 3156 559 3463 722 
L 3463 178 
Q 3153 47 2828 -22 
Q 2503 -91 2169 -91 
Q 1331 -91 842 396 
Q 353 884 353 1716 
Q 353 2575 817 3079 
Q 1281 3584 2069 3584 
Q 2775 3584 3186 3129 
Q 3597 2675 3597 1894 
z
M 3022 2063 
Q 3016 2534 2758 2815 
Q 2500 3097 2075 3097 
Q 1594 3097 1305 2825 
Q 1016 2553 972 2059 
L 3022 2063 
z
" transform="scale(0.015625)"/>
       </defs>
       <use xlink:href="#DejaVuSans-61"/>
       <use xlink:href="#DejaVuSans-69" x="61.279297"/>
       <use xlink:href="#DejaVuSans-72" x="89.0625"/>
       <use xlink:href="#DejaVuSans-70" x="130.175781"/>
       <use xlink:href="#DejaVuSans-6c" x="193.652344"/>
       <use xlink:href="#DejaVuSans-61" x="221.435547"/>
       <use xlink:href="#DejaVuSans-6e" x="282.714844"/>
       <use xlink:href="#DejaVuSans-65" x="346.09375"/>
      </g>
     </g>
    </g>
    <g id="xtick_2">
     <g id="line2d_2">
      <g>
       <use xlink:href="#m07fd57eb96" x="190.981309" y="300.648589" style="stroke: #000000; stroke-width: 0.8"/>
      </g>
     </g>
     <g id="text_2">
      <!-- automobile -->
      <g transform="translate(167.929608 342.439966) rotate(-30) scale(0.1 -0.1)">
       <defs>
        <path id="DejaVuSans-75" d="M 544 1381 
L 544 3500 
L 1119 3500 
L 1119 1403 
Q 1119 906 1312 657 
Q 1506 409 1894 409 
Q 2359 409 2629 706 
Q 2900 1003 2900 1516 
L 2900 3500 
L 3475 3500 
L 3475 0 
L 2900 0 
L 2900 538 
Q 2691 219 2414 64 
Q 2138 -91 1772 -91 
Q 1169 -91 856 284 
Q 544 659 544 1381 
z
M 1991 3584 
L 1991 3584 
z
" transform="scale(0.015625)"/>
        <path id="DejaVuSans-74" d="M 1172 4494 
L 1172 3500 
L 2356 3500 
L 2356 3053 
L 1172 3053 
L 1172 1153 
Q 1172 725 1289 603 
Q 1406 481 1766 481 
L 2356 481 
L 2356 0 
L 1766 0 
Q 1100 0 847 248 
Q 594 497 594 1153 
L 594 3053 
L 172 3053 
L 172 3500 
L 594 3500 
L 594 4494 
L 1172 4494 
z
" transform="scale(0.015625)"/>
        <path id="DejaVuSans-6f" d="M 1959 3097 
Q 1497 3097 1228 2736 
Q 959 2375 959 1747 
Q 959 1119 1226 758 
Q 1494 397 1959 397 
Q 2419 397 2687 759 
Q 2956 1122 2956 1747 
Q 2956 2369 2687 2733 
Q 2419 3097 1959 3097 
z
M 1959 3584 
Q 2709 3584 3137 3096 
Q 3566 2609 3566 1747 
Q 3566 888 3137 398 
Q 2709 -91 1959 -91 
Q 1206 -91 779 398 
Q 353 888 353 1747 
Q 353 2609 779 3096 
Q 1206 3584 1959 3584 
z
" transform="scale(0.015625)"/>
        <path id="DejaVuSans-6d" d="M 3328 2828 
Q 3544 3216 3844 3400 
Q 4144 3584 4550 3584 
Q 5097 3584 5394 3201 
Q 5691 2819 5691 2113 
L 5691 0 
L 5113 0 
L 5113 2094 
Q 5113 2597 4934 2840 
Q 4756 3084 4391 3084 
Q 3944 3084 3684 2787 
Q 3425 2491 3425 1978 
L 3425 0 
L 2847 0 
L 2847 2094 
Q 2847 2600 2669 2842 
Q 2491 3084 2119 3084 
Q 1678 3084 1418 2786 
Q 1159 2488 1159 1978 
L 1159 0 
L 581 0 
L 581 3500 
L 1159 3500 
L 1159 2956 
Q 1356 3278 1631 3431 
Q 1906 3584 2284 3584 
Q 2666 3584 2933 3390 
Q 3200 3197 3328 2828 
z
" transform="scale(0.015625)"/>
        <path id="DejaVuSans-62" d="M 3116 1747 
Q 3116 2381 2855 2742 
Q 2594 3103 2138 3103 
Q 1681 3103 1420 2742 
Q 1159 2381 1159 1747 
Q 1159 1113 1420 752 
Q 1681 391 2138 391 
Q 2594 391 2855 752 
Q 3116 1113 3116 1747 
z
M 1159 2969 
Q 1341 3281 1617 3432 
Q 1894 3584 2278 3584 
Q 2916 3584 3314 3078 
Q 3713 2572 3713 1747 
Q 3713 922 3314 415 
Q 2916 -91 2278 -91 
Q 1894 -91 1617 61 
Q 1341 213 1159 525 
L 1159 0 
L 581 0 
L 581 4863 
L 1159 4863 
L 1159 2969 
z
" transform="scale(0.015625)"/>
       </defs>
       <use xlink:href="#DejaVuSans-61"/>
       <use xlink:href="#DejaVuSans-75" x="61.279297"/>
       <use xlink:href="#DejaVuSans-74" x="124.658203"/>
       <use xlink:href="#DejaVuSans-6f" x="163.867188"/>
       <use xlink:href="#DejaVuSans-6d" x="225.048828"/>
       <use xlink:href="#DejaVuSans-6f" x="322.460938"/>
       <use xlink:href="#DejaVuSans-62" x="383.642578"/>
       <use xlink:href="#DejaVuSans-69" x="447.119141"/>
       <use xlink:href="#DejaVuSans-6c" x="474.902344"/>
       <use xlink:href="#DejaVuSans-65" x="502.685547"/>
      </g>
     </g>
    </g>
    <g id="xtick_3">
     <g id="line2d_3">
      <g>
       <use xlink:href="#m07fd57eb96" x="269.463971" y="300.648589" style="stroke: #000000; stroke-width: 0.8"/>
      </g>
     </g>
     <g id="text_3">
      <!-- bird -->
      <g transform="translate(262.438476 323.934498) rotate(-30) scale(0.1 -0.1)">
       <defs>
        <path id="DejaVuSans-64" d="M 2906 2969 
L 2906 4863 
L 3481 4863 
L 3481 0 
L 2906 0 
L 2906 525 
Q 2725 213 2448 61 
Q 2172 -91 1784 -91 
Q 1150 -91 751 415 
Q 353 922 353 1747 
Q 353 2572 751 3078 
Q 1150 3584 1784 3584 
Q 2172 3584 2448 3432 
Q 2725 3281 2906 2969 
z
M 947 1747 
Q 947 1113 1208 752 
Q 1469 391 1925 391 
Q 2381 391 2643 752 
Q 2906 1113 2906 1747 
Q 2906 2381 2643 2742 
Q 2381 3103 1925 3103 
Q 1469 3103 1208 2742 
Q 947 2381 947 1747 
z
" transform="scale(0.015625)"/>
       </defs>
       <use xlink:href="#DejaVuSans-62"/>
       <use xlink:href="#DejaVuSans-69" x="63.476562"/>
       <use xlink:href="#DejaVuSans-72" x="91.259766"/>
       <use xlink:href="#DejaVuSans-64" x="130.623047"/>
      </g>
     </g>
    </g>
    <g id="xtick_4">
     <g id="line2d_4">
      <g>
       <use xlink:href="#m07fd57eb96" x="347.946632" y="300.648589" style="stroke: #000000; stroke-width: 0.8"/>
      </g>
     </g>
     <g id="text_4">
      <!-- cat -->
      <g transform="translate(342.594326 322.002466) rotate(-30) scale(0.1 -0.1)">
       <defs>
        <path id="DejaVuSans-63" d="M 3122 3366 
L 3122 2828 
Q 2878 2963 2633 3030 
Q 2388 3097 2138 3097 
Q 1578 3097 1268 2742 
Q 959 2388 959 1747 
Q 959 1106 1268 751 
Q 1578 397 2138 397 
Q 2388 397 2633 464 
Q 2878 531 3122 666 
L 3122 134 
Q 2881 22 2623 -34 
Q 2366 -91 2075 -91 
Q 1284 -91 818 406 
Q 353 903 353 1747 
Q 353 2603 823 3093 
Q 1294 3584 2113 3584 
Q 2378 3584 2631 3529 
Q 2884 3475 3122 3366 
z
" transform="scale(0.015625)"/>
       </defs>
       <use xlink:href="#DejaVuSans-63"/>
       <use xlink:href="#DejaVuSans-61" x="54.980469"/>
       <use xlink:href="#DejaVuSans-74" x="116.259766"/>
      </g>
     </g>
    </g>
    <g id="xtick_5">
     <g id="line2d_5">
      <g>
       <use xlink:href="#m07fd57eb96" x="426.429294" y="300.648589" style="stroke: #000000; stroke-width: 0.8"/>
      </g>
     </g>
     <g id="text_5">
      <!-- deer -->
      <g transform="translate(417.951177 325.611841) rotate(-30) scale(0.1 -0.1)">
       <use xlink:href="#DejaVuSans-64"/>
       <use xlink:href="#DejaVuSans-65" x="63.476562"/>
       <use xlink:href="#DejaVuSans-65" x="125"/>
       <use xlink:href="#DejaVuSans-72" x="186.523438"/>
      </g>
     </g>
    </g>
    <g id="xtick_6">
     <g id="line2d_6">
      <g>
       <use xlink:href="#m07fd57eb96" x="504.911956" y="300.648589" style="stroke: #000000; stroke-width: 0.8"/>
      </g>
     </g>
     <g id="text_6">
      <!-- dog -->
      <g transform="translate(498.144239 323.636841) rotate(-30) scale(0.1 -0.1)">
       <defs>
        <path id="DejaVuSans-67" d="M 2906 1791 
Q 2906 2416 2648 2759 
Q 2391 3103 1925 3103 
Q 1463 3103 1205 2759 
Q 947 2416 947 1791 
Q 947 1169 1205 825 
Q 1463 481 1925 481 
Q 2391 481 2648 825 
Q 2906 1169 2906 1791 
z
M 3481 434 
Q 3481 -459 3084 -895 
Q 2688 -1331 1869 -1331 
Q 1566 -1331 1297 -1286 
Q 1028 -1241 775 -1147 
L 775 -588 
Q 1028 -725 1275 -790 
Q 1522 -856 1778 -856 
Q 2344 -856 2625 -561 
Q 2906 -266 2906 331 
L 2906 616 
Q 2728 306 2450 153 
Q 2172 0 1784 0 
Q 1141 0 747 490 
Q 353 981 353 1791 
Q 353 2603 747 3093 
Q 1141 3584 1784 3584 
Q 2172 3584 2450 3431 
Q 2728 3278 2906 2969 
L 2906 3500 
L 3481 3500 
L 3481 434 
z
" transform="scale(0.015625)"/>
       </defs>
       <use xlink:href="#DejaVuSans-64"/>
       <use xlink:href="#DejaVuSans-6f" x="63.476562"/>
       <use xlink:href="#DejaVuSans-67" x="124.658203"/>
      </g>
     </g>
    </g>
    <g id="xtick_7">
     <g id="line2d_7">
      <g>
       <use xlink:href="#m07fd57eb96" x="583.394618" y="300.648589" style="stroke: #000000; stroke-width: 0.8"/>
      </g>
     </g>
     <g id="text_7">
      <!-- frog -->
      <g transform="translate(576.168854 324.165748) rotate(-30) scale(0.1 -0.1)">
       <defs>
        <path id="DejaVuSans-66" d="M 2375 4863 
L 2375 4384 
L 1825 4384 
Q 1516 4384 1395 4259 
Q 1275 4134 1275 3809 
L 1275 3500 
L 2222 3500 
L 2222 3053 
L 1275 3053 
L 1275 0 
L 697 0 
L 697 3053 
L 147 3053 
L 147 3500 
L 697 3500 
L 697 3744 
Q 697 4328 969 4595 
Q 1241 4863 1831 4863 
L 2375 4863 
z
" transform="scale(0.015625)"/>
       </defs>
       <use xlink:href="#DejaVuSans-66"/>
       <use xlink:href="#DejaVuSans-72" x="35.205078"/>
       <use xlink:href="#DejaVuSans-6f" x="74.068359"/>
       <use xlink:href="#DejaVuSans-67" x="135.25"/>
      </g>
     </g>
    </g>
    <g id="xtick_8">
     <g id="line2d_8">
      <g>
       <use xlink:href="#m07fd57eb96" x="661.877279" y="300.648589" style="stroke: #000000; stroke-width: 0.8"/>
      </g>
     </g>
     <g id="text_8">
      <!-- horse -->
      <g transform="translate(651.163057 328.193873) rotate(-30) scale(0.1 -0.1)">
       <defs>
        <path id="DejaVuSans-68" d="M 3513 2113 
L 3513 0 
L 2938 0 
L 2938 2094 
Q 2938 2591 2744 2837 
Q 2550 3084 2163 3084 
Q 1697 3084 1428 2787 
Q 1159 2491 1159 1978 
L 1159 0 
L 581 0 
L 581 4863 
L 1159 4863 
L 1159 2956 
Q 1366 3272 1645 3428 
Q 1925 3584 2291 3584 
Q 2894 3584 3203 3211 
Q 3513 2838 3513 2113 
z
" transform="scale(0.015625)"/>
        <path id="DejaVuSans-73" d="M 2834 3397 
L 2834 2853 
Q 2591 2978 2328 3040 
Q 2066 3103 1784 3103 
Q 1356 3103 1142 2972 
Q 928 2841 928 2578 
Q 928 2378 1081 2264 
Q 1234 2150 1697 2047 
L 1894 2003 
Q 2506 1872 2764 1633 
Q 3022 1394 3022 966 
Q 3022 478 2636 193 
Q 2250 -91 1575 -91 
Q 1294 -91 989 -36 
Q 684 19 347 128 
L 347 722 
Q 666 556 975 473 
Q 1284 391 1588 391 
Q 1994 391 2212 530 
Q 2431 669 2431 922 
Q 2431 1156 2273 1281 
Q 2116 1406 1581 1522 
L 1381 1569 
Q 847 1681 609 1914 
Q 372 2147 372 2553 
Q 372 3047 722 3315 
Q 1072 3584 1716 3584 
Q 2034 3584 2315 3537 
Q 2597 3491 2834 3397 
z
" transform="scale(0.015625)"/>
       </defs>
       <use xlink:href="#DejaVuSans-68"/>
       <use xlink:href="#DejaVuSans-6f" x="63.378906"/>
       <use xlink:href="#DejaVuSans-72" x="124.560547"/>
       <use xlink:href="#DejaVuSans-73" x="165.673828"/>
       <use xlink:href="#DejaVuSans-65" x="217.773438"/>
      </g>
     </g>
    </g>
    <g id="xtick_9">
     <g id="line2d_9">
      <g>
       <use xlink:href="#m07fd57eb96" x="740.359941" y="300.648589" style="stroke: #000000; stroke-width: 0.8"/>
      </g>
     </g>
     <g id="text_9">
      <!-- ship -->
      <g transform="translate(732.787767 324.565748) rotate(-30) scale(0.1 -0.1)">
       <use xlink:href="#DejaVuSans-73"/>
       <use xlink:href="#DejaVuSans-68" x="52.099609"/>
       <use xlink:href="#DejaVuSans-69" x="115.478516"/>
       <use xlink:href="#DejaVuSans-70" x="143.261719"/>
      </g>
     </g>
    </g>
    <g id="xtick_10">
     <g id="line2d_10">
      <g>
       <use xlink:href="#m07fd57eb96" x="818.842603" y="300.648589" style="stroke: #000000; stroke-width: 0.8"/>
      </g>
     </g>
     <g id="text_10">
      <!-- truck -->
      <g transform="translate(809.112131 327.057935) rotate(-30) scale(0.1 -0.1)">
       <defs>
        <path id="DejaVuSans-6b" d="M 581 4863 
L 1159 4863 
L 1159 1991 
L 2875 3500 
L 3609 3500 
L 1753 1863 
L 3688 0 
L 2938 0 
L 1159 1709 
L 1159 0 
L 581 0 
L 581 4863 
z
" transform="scale(0.015625)"/>
       </defs>
       <use xlink:href="#DejaVuSans-74"/>
       <use xlink:href="#DejaVuSans-72" x="39.208984"/>
       <use xlink:href="#DejaVuSans-75" x="80.322266"/>
       <use xlink:href="#DejaVuSans-63" x="143.701172"/>
       <use xlink:href="#DejaVuSans-6b" x="198.681641"/>
      </g>
     </g>
    </g>
   </g>
   <g id="matplotlib.axis_2">
    <g id="ytick_1">
     <g id="line2d_11">
      <defs>
       <path id="mf8cd6a0ad0" d="M 0 0 
L -3.5 0 
" style="stroke: #000000; stroke-width: 0.8"/>
      </defs>
      <g>
       <use xlink:href="#mf8cd6a0ad0" x="46.965625" y="300.648589" style="stroke: #000000; stroke-width: 0.8"/>
      </g>
     </g>
     <g id="text_11">
      <!-- 0 -->
      <g transform="translate(33.603125 304.447808) scale(0.1 -0.1)">
       <defs>
        <path id="DejaVuSans-30" d="M 2034 4250 
Q 1547 4250 1301 3770 
Q 1056 3291 1056 2328 
Q 1056 1369 1301 889 
Q 1547 409 2034 409 
Q 2525 409 2770 889 
Q 3016 1369 3016 2328 
Q 3016 3291 2770 3770 
Q 2525 4250 2034 4250 
z
M 2034 4750 
Q 2819 4750 3233 4129 
Q 3647 3509 3647 2328 
Q 3647 1150 3233 529 
Q 2819 -91 2034 -91 
Q 1250 -91 836 529 
Q 422 1150 422 2328 
Q 422 3509 836 4129 
Q 1250 4750 2034 4750 
z
" transform="scale(0.015625)"/>
       </defs>
       <use xlink:href="#DejaVuSans-30"/>
      </g>
     </g>
    </g>
    <g id="ytick_2">
     <g id="line2d_12">
      <g>
       <use xlink:href="#mf8cd6a0ad0" x="46.965625" y="269.572782" style="stroke: #000000; stroke-width: 0.8"/>
      </g>
     </g>
     <g id="text_12">
      <!-- 100 -->
      <g transform="translate(20.878125 273.372001) scale(0.1 -0.1)">
       <defs>
        <path id="DejaVuSans-31" d="M 794 531 
L 1825 531 
L 1825 4091 
L 703 3866 
L 703 4441 
L 1819 4666 
L 2450 4666 
L 2450 531 
L 3481 531 
L 3481 0 
L 794 0 
L 794 531 
z
" transform="scale(0.015625)"/>
       </defs>
       <use xlink:href="#DejaVuSans-31"/>
       <use xlink:href="#DejaVuSans-30" x="63.623047"/>
       <use xlink:href="#DejaVuSans-30" x="127.246094"/>
      </g>
     </g>
    </g>
    <g id="ytick_3">
     <g id="line2d_13">
      <g>
       <use xlink:href="#mf8cd6a0ad0" x="46.965625" y="238.496975" style="stroke: #000000; stroke-width: 0.8"/>
      </g>
     </g>
     <g id="text_13">
      <!-- 200 -->
      <g transform="translate(20.878125 242.296194) scale(0.1 -0.1)">
       <defs>
        <path id="DejaVuSans-32" d="M 1228 531 
L 3431 531 
L 3431 0 
L 469 0 
L 469 531 
Q 828 903 1448 1529 
Q 2069 2156 2228 2338 
Q 2531 2678 2651 2914 
Q 2772 3150 2772 3378 
Q 2772 3750 2511 3984 
Q 2250 4219 1831 4219 
Q 1534 4219 1204 4116 
Q 875 4013 500 3803 
L 500 4441 
Q 881 4594 1212 4672 
Q 1544 4750 1819 4750 
Q 2544 4750 2975 4387 
Q 3406 4025 3406 3419 
Q 3406 3131 3298 2873 
Q 3191 2616 2906 2266 
Q 2828 2175 2409 1742 
Q 1991 1309 1228 531 
z
" transform="scale(0.015625)"/>
       </defs>
       <use xlink:href="#DejaVuSans-32"/>
       <use xlink:href="#DejaVuSans-30" x="63.623047"/>
       <use xlink:href="#DejaVuSans-30" x="127.246094"/>
      </g>
     </g>
    </g>
    <g id="ytick_4">
     <g id="line2d_14">
      <g>
       <use xlink:href="#mf8cd6a0ad0" x="46.965625" y="207.421168" style="stroke: #000000; stroke-width: 0.8"/>
      </g>
     </g>
     <g id="text_14">
      <!-- 300 -->
      <g transform="translate(20.878125 211.220387) scale(0.1 -0.1)">
       <defs>
        <path id="DejaVuSans-33" d="M 2597 2516 
Q 3050 2419 3304 2112 
Q 3559 1806 3559 1356 
Q 3559 666 3084 287 
Q 2609 -91 1734 -91 
Q 1441 -91 1130 -33 
Q 819 25 488 141 
L 488 750 
Q 750 597 1062 519 
Q 1375 441 1716 441 
Q 2309 441 2620 675 
Q 2931 909 2931 1356 
Q 2931 1769 2642 2001 
Q 2353 2234 1838 2234 
L 1294 2234 
L 1294 2753 
L 1863 2753 
Q 2328 2753 2575 2939 
Q 2822 3125 2822 3475 
Q 2822 3834 2567 4026 
Q 2313 4219 1838 4219 
Q 1578 4219 1281 4162 
Q 984 4106 628 3988 
L 628 4550 
Q 988 4650 1302 4700 
Q 1616 4750 1894 4750 
Q 2613 4750 3031 4423 
Q 3450 4097 3450 3541 
Q 3450 3153 3228 2886 
Q 3006 2619 2597 2516 
z
" transform="scale(0.015625)"/>
       </defs>
       <use xlink:href="#DejaVuSans-33"/>
       <use xlink:href="#DejaVuSans-30" x="63.623047"/>
       <use xlink:href="#DejaVuSans-30" x="127.246094"/>
      </g>
     </g>
    </g>
    <g id="ytick_5">
     <g id="line2d_15">
      <g>
       <use xlink:href="#mf8cd6a0ad0" x="46.965625" y="176.345362" style="stroke: #000000; stroke-width: 0.8"/>
      </g>
     </g>
     <g id="text_15">
      <!-- 400 -->
      <g transform="translate(20.878125 180.14458) scale(0.1 -0.1)">
       <defs>
        <path id="DejaVuSans-34" d="M 2419 4116 
L 825 1625 
L 2419 1625 
L 2419 4116 
z
M 2253 4666 
L 3047 4666 
L 3047 1625 
L 3713 1625 
L 3713 1100 
L 3047 1100 
L 3047 0 
L 2419 0 
L 2419 1100 
L 313 1100 
L 313 1709 
L 2253 4666 
z
" transform="scale(0.015625)"/>
       </defs>
       <use xlink:href="#DejaVuSans-34"/>
       <use xlink:href="#DejaVuSans-30" x="63.623047"/>
       <use xlink:href="#DejaVuSans-30" x="127.246094"/>
      </g>
     </g>
    </g>
    <g id="ytick_6">
     <g id="line2d_16">
      <g>
       <use xlink:href="#mf8cd6a0ad0" x="46.965625" y="145.269555" style="stroke: #000000; stroke-width: 0.8"/>
      </g>
     </g>
     <g id="text_16">
      <!-- 500 -->
      <g transform="translate(20.878125 149.068773) scale(0.1 -0.1)">
       <defs>
        <path id="DejaVuSans-35" d="M 691 4666 
L 3169 4666 
L 3169 4134 
L 1269 4134 
L 1269 2991 
Q 1406 3038 1543 3061 
Q 1681 3084 1819 3084 
Q 2600 3084 3056 2656 
Q 3513 2228 3513 1497 
Q 3513 744 3044 326 
Q 2575 -91 1722 -91 
Q 1428 -91 1123 -41 
Q 819 9 494 109 
L 494 744 
Q 775 591 1075 516 
Q 1375 441 1709 441 
Q 2250 441 2565 725 
Q 2881 1009 2881 1497 
Q 2881 1984 2565 2268 
Q 2250 2553 1709 2553 
Q 1456 2553 1204 2497 
Q 953 2441 691 2322 
L 691 4666 
z
" transform="scale(0.015625)"/>
       </defs>
       <use xlink:href="#DejaVuSans-35"/>
       <use xlink:href="#DejaVuSans-30" x="63.623047"/>
       <use xlink:href="#DejaVuSans-30" x="127.246094"/>
      </g>
     </g>
    </g>
    <g id="ytick_7">
     <g id="line2d_17">
      <g>
       <use xlink:href="#mf8cd6a0ad0" x="46.965625" y="114.193748" style="stroke: #000000; stroke-width: 0.8"/>
      </g>
     </g>
     <g id="text_17">
      <!-- 600 -->
      <g transform="translate(20.878125 117.992967) scale(0.1 -0.1)">
       <defs>
        <path id="DejaVuSans-36" d="M 2113 2584 
Q 1688 2584 1439 2293 
Q 1191 2003 1191 1497 
Q 1191 994 1439 701 
Q 1688 409 2113 409 
Q 2538 409 2786 701 
Q 3034 994 3034 1497 
Q 3034 2003 2786 2293 
Q 2538 2584 2113 2584 
z
M 3366 4563 
L 3366 3988 
Q 3128 4100 2886 4159 
Q 2644 4219 2406 4219 
Q 1781 4219 1451 3797 
Q 1122 3375 1075 2522 
Q 1259 2794 1537 2939 
Q 1816 3084 2150 3084 
Q 2853 3084 3261 2657 
Q 3669 2231 3669 1497 
Q 3669 778 3244 343 
Q 2819 -91 2113 -91 
Q 1303 -91 875 529 
Q 447 1150 447 2328 
Q 447 3434 972 4092 
Q 1497 4750 2381 4750 
Q 2619 4750 2861 4703 
Q 3103 4656 3366 4563 
z
" transform="scale(0.015625)"/>
       </defs>
       <use xlink:href="#DejaVuSans-36"/>
       <use xlink:href="#DejaVuSans-30" x="63.623047"/>
       <use xlink:href="#DejaVuSans-30" x="127.246094"/>
      </g>
     </g>
    </g>
    <g id="ytick_8">
     <g id="line2d_18">
      <g>
       <use xlink:href="#mf8cd6a0ad0" x="46.965625" y="83.117941" style="stroke: #000000; stroke-width: 0.8"/>
      </g>
     </g>
     <g id="text_18">
      <!-- 700 -->
      <g transform="translate(20.878125 86.91716) scale(0.1 -0.1)">
       <defs>
        <path id="DejaVuSans-37" d="M 525 4666 
L 3525 4666 
L 3525 4397 
L 1831 0 
L 1172 0 
L 2766 4134 
L 525 4134 
L 525 4666 
z
" transform="scale(0.015625)"/>
       </defs>
       <use xlink:href="#DejaVuSans-37"/>
       <use xlink:href="#DejaVuSans-30" x="63.623047"/>
       <use xlink:href="#DejaVuSans-30" x="127.246094"/>
      </g>
     </g>
    </g>
    <g id="ytick_9">
     <g id="line2d_19">
      <g>
       <use xlink:href="#mf8cd6a0ad0" x="46.965625" y="52.042134" style="stroke: #000000; stroke-width: 0.8"/>
      </g>
     </g>
     <g id="text_19">
      <!-- 800 -->
      <g transform="translate(20.878125 55.841353) scale(0.1 -0.1)">
       <defs>
        <path id="DejaVuSans-38" d="M 2034 2216 
Q 1584 2216 1326 1975 
Q 1069 1734 1069 1313 
Q 1069 891 1326 650 
Q 1584 409 2034 409 
Q 2484 409 2743 651 
Q 3003 894 3003 1313 
Q 3003 1734 2745 1975 
Q 2488 2216 2034 2216 
z
M 1403 2484 
Q 997 2584 770 2862 
Q 544 3141 544 3541 
Q 544 4100 942 4425 
Q 1341 4750 2034 4750 
Q 2731 4750 3128 4425 
Q 3525 4100 3525 3541 
Q 3525 3141 3298 2862 
Q 3072 2584 2669 2484 
Q 3125 2378 3379 2068 
Q 3634 1759 3634 1313 
Q 3634 634 3220 271 
Q 2806 -91 2034 -91 
Q 1263 -91 848 271 
Q 434 634 434 1313 
Q 434 1759 690 2068 
Q 947 2378 1403 2484 
z
M 1172 3481 
Q 1172 3119 1398 2916 
Q 1625 2713 2034 2713 
Q 2441 2713 2670 2916 
Q 2900 3119 2900 3481 
Q 2900 3844 2670 4047 
Q 2441 4250 2034 4250 
Q 1625 4250 1398 4047 
Q 1172 3844 1172 3481 
z
" transform="scale(0.015625)"/>
       </defs>
       <use xlink:href="#DejaVuSans-38"/>
       <use xlink:href="#DejaVuSans-30" x="63.623047"/>
       <use xlink:href="#DejaVuSans-30" x="127.246094"/>
      </g>
     </g>
    </g>
    <g id="text_20">
     <!-- Number of samples -->
     <g transform="translate(14.798438 210.350544) rotate(-90) scale(0.1 -0.1)">
      <defs>
       <path id="DejaVuSans-4e" d="M 628 4666 
L 1478 4666 
L 3547 763 
L 3547 4666 
L 4159 4666 
L 4159 0 
L 3309 0 
L 1241 3903 
L 1241 0 
L 628 0 
L 628 4666 
z
" transform="scale(0.015625)"/>
       <path id="DejaVuSans-20" transform="scale(0.015625)"/>
      </defs>
      <use xlink:href="#DejaVuSans-4e"/>
      <use xlink:href="#DejaVuSans-75" x="74.804688"/>
      <use xlink:href="#DejaVuSans-6d" x="138.183594"/>
      <use xlink:href="#DejaVuSans-62" x="235.595703"/>
      <use xlink:href="#DejaVuSans-65" x="299.072266"/>
      <use xlink:href="#DejaVuSans-72" x="360.595703"/>
      <use xlink:href="#DejaVuSans-20" x="401.708984"/>
      <use xlink:href="#DejaVuSans-6f" x="433.496094"/>
      <use xlink:href="#DejaVuSans-66" x="494.677734"/>
      <use xlink:href="#DejaVuSans-20" x="529.882812"/>
      <use xlink:href="#DejaVuSans-73" x="561.669922"/>
      <use xlink:href="#DejaVuSans-61" x="613.769531"/>
      <use xlink:href="#DejaVuSans-6d" x="675.048828"/>
      <use xlink:href="#DejaVuSans-70" x="772.460938"/>
      <use xlink:href="#DejaVuSans-6c" x="835.9375"/>
      <use xlink:href="#DejaVuSans-65" x="863.720703"/>
      <use xlink:href="#DejaVuSans-73" x="925.244141"/>
     </g>
    </g>
   </g>
   <g id="patch_23">
    <path d="M 46.965625 300.648589 
L 46.965625 22.318125 
" style="fill: none; stroke: #000000; stroke-width: 0.8; stroke-linejoin: miter; stroke-linecap: square"/>
   </g>
   <g id="patch_24">
    <path d="M 884.375625 300.648589 
L 884.375625 22.318125 
" style="fill: none; stroke: #000000; stroke-width: 0.8; stroke-linejoin: miter; stroke-linecap: square"/>
   </g>
   <g id="patch_25">
    <path d="M 46.965625 300.648589 
L 884.375625 300.648589 
" style="fill: none; stroke: #000000; stroke-width: 0.8; stroke-linejoin: miter; stroke-linecap: square"/>
   </g>
   <g id="patch_26">
    <path d="M 46.965625 22.318125 
L 884.375625 22.318125 
" style="fill: none; stroke: #000000; stroke-width: 0.8; stroke-linejoin: miter; stroke-linecap: square"/>
   </g>
   <g id="text_21">
    <!-- bk=0.18 -->
    <g style="fill: #2e8b57" transform="translate(81.650432 60.944159) scale(0.08 -0.08)">
     <defs>
      <path id="DejaVuSans-3d" d="M 678 2906 
L 4684 2906 
L 4684 2381 
L 678 2381 
L 678 2906 
z
M 678 1631 
L 4684 1631 
L 4684 1100 
L 678 1100 
L 678 1631 
z
" transform="scale(0.015625)"/>
      <path id="DejaVuSans-2e" d="M 684 794 
L 1344 794 
L 1344 0 
L 684 0 
L 684 794 
z
" transform="scale(0.015625)"/>
     </defs>
     <use xlink:href="#DejaVuSans-62"/>
     <use xlink:href="#DejaVuSans-6b" x="63.476562"/>
     <use xlink:href="#DejaVuSans-3d" x="121.386719"/>
     <use xlink:href="#DejaVuSans-30" x="205.175781"/>
     <use xlink:href="#DejaVuSans-2e" x="268.798828"/>
     <use xlink:href="#DejaVuSans-31" x="300.585938"/>
     <use xlink:href="#DejaVuSans-38" x="364.208984"/>
    </g>
   </g>
   <g id="text_22">
    <!-- bk=-0.01 -->
    <g style="fill: #2e8b57" transform="translate(158.689968 33.28669) scale(0.08 -0.08)">
     <defs>
      <path id="DejaVuSans-2d" d="M 313 2009 
L 1997 2009 
L 1997 1497 
L 313 1497 
L 313 2009 
z
" transform="scale(0.015625)"/>
     </defs>
     <use xlink:href="#DejaVuSans-62"/>
     <use xlink:href="#DejaVuSans-6b" x="63.476562"/>
     <use xlink:href="#DejaVuSans-3d" x="121.386719"/>
     <use xlink:href="#DejaVuSans-2d" x="205.175781"/>
     <use xlink:href="#DejaVuSans-30" x="241.259766"/>
     <use xlink:href="#DejaVuSans-2e" x="304.882812"/>
     <use xlink:href="#DejaVuSans-30" x="336.669922"/>
     <use xlink:href="#DejaVuSans-31" x="400.292969"/>
    </g>
   </g>
   <g id="text_23">
    <!-- bk=0.14 -->
    <g style="fill: #2e8b57" transform="translate(238.615755 107.868627) scale(0.08 -0.08)">
     <use xlink:href="#DejaVuSans-62"/>
     <use xlink:href="#DejaVuSans-6b" x="63.476562"/>
     <use xlink:href="#DejaVuSans-3d" x="121.386719"/>
     <use xlink:href="#DejaVuSans-30" x="205.175781"/>
     <use xlink:href="#DejaVuSans-2e" x="268.798828"/>
     <use xlink:href="#DejaVuSans-31" x="300.585938"/>
     <use xlink:href="#DejaVuSans-34" x="364.208984"/>
    </g>
   </g>
   <g id="text_24">
    <!-- bk=0.20 -->
    <g style="fill: #2e8b57" transform="translate(317.098417 131.796998) scale(0.08 -0.08)">
     <use xlink:href="#DejaVuSans-62"/>
     <use xlink:href="#DejaVuSans-6b" x="63.476562"/>
     <use xlink:href="#DejaVuSans-3d" x="121.386719"/>
     <use xlink:href="#DejaVuSans-30" x="205.175781"/>
     <use xlink:href="#DejaVuSans-2e" x="268.798828"/>
     <use xlink:href="#DejaVuSans-32" x="300.585938"/>
     <use xlink:href="#DejaVuSans-30" x="364.208984"/>
    </g>
   </g>
   <g id="text_25">
    <!-- bk=0.43 -->
    <g style="fill: #2e8b57" transform="translate(395.581078 73.995997) scale(0.08 -0.08)">
     <use xlink:href="#DejaVuSans-62"/>
     <use xlink:href="#DejaVuSans-6b" x="63.476562"/>
     <use xlink:href="#DejaVuSans-3d" x="121.386719"/>
     <use xlink:href="#DejaVuSans-30" x="205.175781"/>
     <use xlink:href="#DejaVuSans-2e" x="268.798828"/>
     <use xlink:href="#DejaVuSans-34" x="300.585938"/>
     <use xlink:href="#DejaVuSans-33" x="364.208984"/>
    </g>
   </g>
   <g id="text_26">
    <!-- bk=0.18 -->
    <g style="fill: #2e8b57" transform="translate(474.06374 119.988192) scale(0.08 -0.08)">
     <use xlink:href="#DejaVuSans-62"/>
     <use xlink:href="#DejaVuSans-6b" x="63.476562"/>
     <use xlink:href="#DejaVuSans-3d" x="121.386719"/>
     <use xlink:href="#DejaVuSans-30" x="205.175781"/>
     <use xlink:href="#DejaVuSans-2e" x="268.798828"/>
     <use xlink:href="#DejaVuSans-31" x="300.585938"/>
     <use xlink:href="#DejaVuSans-38" x="364.208984"/>
    </g>
   </g>
   <g id="text_27">
    <!-- bk=0.22 -->
    <g style="fill: #2e8b57" transform="translate(552.546402 52.242933) scale(0.08 -0.08)">
     <use xlink:href="#DejaVuSans-62"/>
     <use xlink:href="#DejaVuSans-6b" x="63.476562"/>
     <use xlink:href="#DejaVuSans-3d" x="121.386719"/>
     <use xlink:href="#DejaVuSans-30" x="205.175781"/>
     <use xlink:href="#DejaVuSans-2e" x="268.798828"/>
     <use xlink:href="#DejaVuSans-32" x="300.585938"/>
     <use xlink:href="#DejaVuSans-32" x="364.208984"/>
    </g>
   </g>
   <g id="text_28">
    <!-- bk=0.24 -->
    <g style="fill: #2e8b57" transform="translate(631.029063 42.609433) scale(0.08 -0.08)">
     <use xlink:href="#DejaVuSans-62"/>
     <use xlink:href="#DejaVuSans-6b" x="63.476562"/>
     <use xlink:href="#DejaVuSans-3d" x="121.386719"/>
     <use xlink:href="#DejaVuSans-30" x="205.175781"/>
     <use xlink:href="#DejaVuSans-2e" x="268.798828"/>
     <use xlink:href="#DejaVuSans-32" x="300.585938"/>
     <use xlink:href="#DejaVuSans-34" x="364.208984"/>
    </g>
   </g>
   <g id="text_29">
    <!-- bk=0.27 -->
    <g style="fill: #2e8b57" transform="translate(709.511725 38.880336) scale(0.08 -0.08)">
     <use xlink:href="#DejaVuSans-62"/>
     <use xlink:href="#DejaVuSans-6b" x="63.476562"/>
     <use xlink:href="#DejaVuSans-3d" x="121.386719"/>
     <use xlink:href="#DejaVuSans-30" x="205.175781"/>
     <use xlink:href="#DejaVuSans-2e" x="268.798828"/>
     <use xlink:href="#DejaVuSans-32" x="300.585938"/>
     <use xlink:href="#DejaVuSans-37" x="364.208984"/>
    </g>
   </g>
   <g id="text_30">
    <!-- bk=0.26 -->
    <g style="fill: #2e8b57" transform="translate(787.994387 56.282788) scale(0.08 -0.08)">
     <use xlink:href="#DejaVuSans-62"/>
     <use xlink:href="#DejaVuSans-6b" x="63.476562"/>
     <use xlink:href="#DejaVuSans-3d" x="121.386719"/>
     <use xlink:href="#DejaVuSans-30" x="205.175781"/>
     <use xlink:href="#DejaVuSans-2e" x="268.798828"/>
     <use xlink:href="#DejaVuSans-32" x="300.585938"/>
     <use xlink:href="#DejaVuSans-36" x="364.208984"/>
    </g>
   </g>
   <g id="text_31">
    <!-- bk=0.17 -->
    <g style="fill: #ff8c00" transform="translate(109.119363 225.024419) scale(0.08 -0.08)">
     <use xlink:href="#DejaVuSans-62"/>
     <use xlink:href="#DejaVuSans-6b" x="63.476562"/>
     <use xlink:href="#DejaVuSans-3d" x="121.386719"/>
     <use xlink:href="#DejaVuSans-30" x="205.175781"/>
     <use xlink:href="#DejaVuSans-2e" x="268.798828"/>
     <use xlink:href="#DejaVuSans-31" x="300.585938"/>
     <use xlink:href="#DejaVuSans-37" x="364.208984"/>
    </g>
   </g>
   <g id="text_32">
    <!-- bk=-0.01 -->
    <g style="fill: #ff8c00" transform="translate(186.1589 252.681887) scale(0.08 -0.08)">
     <use xlink:href="#DejaVuSans-62"/>
     <use xlink:href="#DejaVuSans-6b" x="63.476562"/>
     <use xlink:href="#DejaVuSans-3d" x="121.386719"/>
     <use xlink:href="#DejaVuSans-2d" x="205.175781"/>
     <use xlink:href="#DejaVuSans-30" x="241.259766"/>
     <use xlink:href="#DejaVuSans-2e" x="304.882812"/>
     <use xlink:href="#DejaVuSans-30" x="336.669922"/>
     <use xlink:href="#DejaVuSans-31" x="400.292969"/>
    </g>
   </g>
   <g id="text_33">
    <!-- bk=0.12 -->
    <g style="fill: #ff8c00" transform="translate(266.084687 178.09995) scale(0.08 -0.08)">
     <use xlink:href="#DejaVuSans-62"/>
     <use xlink:href="#DejaVuSans-6b" x="63.476562"/>
     <use xlink:href="#DejaVuSans-3d" x="121.386719"/>
     <use xlink:href="#DejaVuSans-30" x="205.175781"/>
     <use xlink:href="#DejaVuSans-2e" x="268.798828"/>
     <use xlink:href="#DejaVuSans-31" x="300.585938"/>
     <use xlink:href="#DejaVuSans-32" x="364.208984"/>
    </g>
   </g>
   <g id="text_34">
    <!-- bk=0.16 -->
    <g style="fill: #ff8c00" transform="translate(344.567348 154.171579) scale(0.08 -0.08)">
     <use xlink:href="#DejaVuSans-62"/>
     <use xlink:href="#DejaVuSans-6b" x="63.476562"/>
     <use xlink:href="#DejaVuSans-3d" x="121.386719"/>
     <use xlink:href="#DejaVuSans-30" x="205.175781"/>
     <use xlink:href="#DejaVuSans-2e" x="268.798828"/>
     <use xlink:href="#DejaVuSans-31" x="300.585938"/>
     <use xlink:href="#DejaVuSans-36" x="364.208984"/>
    </g>
   </g>
   <g id="text_35">
    <!-- bk=0.38 -->
    <g style="fill: #ff8c00" transform="translate(423.05001 211.97258) scale(0.08 -0.08)">
     <use xlink:href="#DejaVuSans-62"/>
     <use xlink:href="#DejaVuSans-6b" x="63.476562"/>
     <use xlink:href="#DejaVuSans-3d" x="121.386719"/>
     <use xlink:href="#DejaVuSans-30" x="205.175781"/>
     <use xlink:href="#DejaVuSans-2e" x="268.798828"/>
     <use xlink:href="#DejaVuSans-33" x="300.585938"/>
     <use xlink:href="#DejaVuSans-38" x="364.208984"/>
    </g>
   </g>
   <g id="text_36">
    <!-- bk=0.18 -->
    <g style="fill: #ff8c00" transform="translate(501.532672 165.980386) scale(0.08 -0.08)">
     <use xlink:href="#DejaVuSans-62"/>
     <use xlink:href="#DejaVuSans-6b" x="63.476562"/>
     <use xlink:href="#DejaVuSans-3d" x="121.386719"/>
     <use xlink:href="#DejaVuSans-30" x="205.175781"/>
     <use xlink:href="#DejaVuSans-2e" x="268.798828"/>
     <use xlink:href="#DejaVuSans-31" x="300.585938"/>
     <use xlink:href="#DejaVuSans-38" x="364.208984"/>
    </g>
   </g>
   <g id="text_37">
    <!-- bk=0.24 -->
    <g style="fill: #ff8c00" transform="translate(580.015333 233.725645) scale(0.08 -0.08)">
     <use xlink:href="#DejaVuSans-62"/>
     <use xlink:href="#DejaVuSans-6b" x="63.476562"/>
     <use xlink:href="#DejaVuSans-3d" x="121.386719"/>
     <use xlink:href="#DejaVuSans-30" x="205.175781"/>
     <use xlink:href="#DejaVuSans-2e" x="268.798828"/>
     <use xlink:href="#DejaVuSans-32" x="300.585938"/>
     <use xlink:href="#DejaVuSans-34" x="364.208984"/>
    </g>
   </g>
   <g id="text_38">
    <!-- bk=0.38 -->
    <g style="fill: #ff8c00" transform="translate(658.497995 243.359145) scale(0.08 -0.08)">
     <use xlink:href="#DejaVuSans-62"/>
     <use xlink:href="#DejaVuSans-6b" x="63.476562"/>
     <use xlink:href="#DejaVuSans-3d" x="121.386719"/>
     <use xlink:href="#DejaVuSans-30" x="205.175781"/>
     <use xlink:href="#DejaVuSans-2e" x="268.798828"/>
     <use xlink:href="#DejaVuSans-33" x="300.585938"/>
     <use xlink:href="#DejaVuSans-38" x="364.208984"/>
    </g>
   </g>
   <g id="text_39">
    <!-- bk=0.37 -->
    <g style="fill: #ff8c00" transform="translate(736.980657 247.088242) scale(0.08 -0.08)">
     <use xlink:href="#DejaVuSans-62"/>
     <use xlink:href="#DejaVuSans-6b" x="63.476562"/>
     <use xlink:href="#DejaVuSans-3d" x="121.386719"/>
     <use xlink:href="#DejaVuSans-30" x="205.175781"/>
     <use xlink:href="#DejaVuSans-2e" x="268.798828"/>
     <use xlink:href="#DejaVuSans-33" x="300.585938"/>
     <use xlink:href="#DejaVuSans-37" x="364.208984"/>
    </g>
   </g>
   <g id="text_40">
    <!-- bk=0.34 -->
    <g style="fill: #ff8c00" transform="translate(815.463318 229.68579) scale(0.08 -0.08)">
     <use xlink:href="#DejaVuSans-62"/>
     <use xlink:href="#DejaVuSans-6b" x="63.476562"/>
     <use xlink:href="#DejaVuSans-3d" x="121.386719"/>
     <use xlink:href="#DejaVuSans-30" x="205.175781"/>
     <use xlink:href="#DejaVuSans-2e" x="268.798828"/>
     <use xlink:href="#DejaVuSans-33" x="300.585938"/>
     <use xlink:href="#DejaVuSans-34" x="364.208984"/>
    </g>
   </g>
   <g id="text_41">
    <!-- 23.6% -->
    <g transform="translate(111.937879 222.951901) scale(0.09 -0.09)">
     <defs>
      <path id="DejaVuSans-25" d="M 4653 2053 
Q 4381 2053 4226 1822 
Q 4072 1591 4072 1178 
Q 4072 772 4226 539 
Q 4381 306 4653 306 
Q 4919 306 5073 539 
Q 5228 772 5228 1178 
Q 5228 1588 5073 1820 
Q 4919 2053 4653 2053 
z
M 4653 2450 
Q 5147 2450 5437 2106 
Q 5728 1763 5728 1178 
Q 5728 594 5436 251 
Q 5144 -91 4653 -91 
Q 4153 -91 3862 251 
Q 3572 594 3572 1178 
Q 3572 1766 3864 2108 
Q 4156 2450 4653 2450 
z
M 1428 4353 
Q 1159 4353 1004 4120 
Q 850 3888 850 3481 
Q 850 3069 1003 2837 
Q 1156 2606 1428 2606 
Q 1700 2606 1854 2837 
Q 2009 3069 2009 3481 
Q 2009 3884 1853 4118 
Q 1697 4353 1428 4353 
z
M 4250 4750 
L 4750 4750 
L 1831 -91 
L 1331 -91 
L 4250 4750 
z
M 1428 4750 
Q 1922 4750 2215 4408 
Q 2509 4066 2509 3481 
Q 2509 2891 2217 2550 
Q 1925 2209 1428 2209 
Q 931 2209 642 2551 
Q 353 2894 353 3481 
Q 353 4063 643 4406 
Q 934 4750 1428 4750 
z
" transform="scale(0.015625)"/>
     </defs>
     <use xlink:href="#DejaVuSans-32"/>
     <use xlink:href="#DejaVuSans-33" x="63.623047"/>
     <use xlink:href="#DejaVuSans-2e" x="127.246094"/>
     <use xlink:href="#DejaVuSans-36" x="159.033203"/>
     <use xlink:href="#DejaVuSans-25" x="222.65625"/>
    </g>
   </g>
   <g id="text_42">
    <!-- 14.7% -->
    <g transform="translate(190.420541 250.60937) scale(0.09 -0.09)">
     <use xlink:href="#DejaVuSans-31"/>
     <use xlink:href="#DejaVuSans-34" x="63.623047"/>
     <use xlink:href="#DejaVuSans-2e" x="127.246094"/>
     <use xlink:href="#DejaVuSans-37" x="159.033203"/>
     <use xlink:href="#DejaVuSans-25" x="222.65625"/>
    </g>
   </g>
   <g id="text_43">
    <!-- 38.7% -->
    <g transform="translate(268.903202 176.027433) scale(0.09 -0.09)">
     <use xlink:href="#DejaVuSans-33"/>
     <use xlink:href="#DejaVuSans-38" x="63.623047"/>
     <use xlink:href="#DejaVuSans-2e" x="127.246094"/>
     <use xlink:href="#DejaVuSans-37" x="159.033203"/>
     <use xlink:href="#DejaVuSans-25" x="222.65625"/>
    </g>
   </g>
   <g id="text_44">
    <!-- 46.4% -->
    <g transform="translate(347.385864 152.099062) scale(0.09 -0.09)">
     <use xlink:href="#DejaVuSans-34"/>
     <use xlink:href="#DejaVuSans-36" x="63.623047"/>
     <use xlink:href="#DejaVuSans-2e" x="127.246094"/>
     <use xlink:href="#DejaVuSans-34" x="159.033203"/>
     <use xlink:href="#DejaVuSans-25" x="222.65625"/>
    </g>
   </g>
   <g id="text_45">
    <!-- 27.8% -->
    <g transform="translate(425.868526 209.900063) scale(0.09 -0.09)">
     <use xlink:href="#DejaVuSans-32"/>
     <use xlink:href="#DejaVuSans-37" x="63.623047"/>
     <use xlink:href="#DejaVuSans-2e" x="127.246094"/>
     <use xlink:href="#DejaVuSans-38" x="159.033203"/>
     <use xlink:href="#DejaVuSans-25" x="222.65625"/>
    </g>
   </g>
   <g id="text_46">
    <!-- 42.6% -->
    <g transform="translate(504.351187 163.907869) scale(0.09 -0.09)">
     <use xlink:href="#DejaVuSans-34"/>
     <use xlink:href="#DejaVuSans-32" x="63.623047"/>
     <use xlink:href="#DejaVuSans-2e" x="127.246094"/>
     <use xlink:href="#DejaVuSans-36" x="159.033203"/>
     <use xlink:href="#DejaVuSans-25" x="222.65625"/>
    </g>
   </g>
   <g id="text_47">
    <!-- 20.8% -->
    <g transform="translate(582.833849 231.653127) scale(0.09 -0.09)">
     <use xlink:href="#DejaVuSans-32"/>
     <use xlink:href="#DejaVuSans-30" x="63.623047"/>
     <use xlink:href="#DejaVuSans-2e" x="127.246094"/>
     <use xlink:href="#DejaVuSans-38" x="159.033203"/>
     <use xlink:href="#DejaVuSans-25" x="222.65625"/>
    </g>
   </g>
   <g id="text_48">
    <!-- 17.7% -->
    <g transform="translate(661.316511 241.286628) scale(0.09 -0.09)">
     <use xlink:href="#DejaVuSans-31"/>
     <use xlink:href="#DejaVuSans-37" x="63.623047"/>
     <use xlink:href="#DejaVuSans-2e" x="127.246094"/>
     <use xlink:href="#DejaVuSans-37" x="159.033203"/>
     <use xlink:href="#DejaVuSans-25" x="222.65625"/>
    </g>
   </g>
   <g id="text_49">
    <!-- 16.5% -->
    <g transform="translate(739.799172 245.015724) scale(0.09 -0.09)">
     <use xlink:href="#DejaVuSans-31"/>
     <use xlink:href="#DejaVuSans-36" x="63.623047"/>
     <use xlink:href="#DejaVuSans-2e" x="127.246094"/>
     <use xlink:href="#DejaVuSans-35" x="159.033203"/>
     <use xlink:href="#DejaVuSans-25" x="222.65625"/>
    </g>
   </g>
   <g id="text_50">
    <!-- 22.1% -->
    <g transform="translate(818.281834 227.613273) scale(0.09 -0.09)">
     <use xlink:href="#DejaVuSans-32"/>
     <use xlink:href="#DejaVuSans-32" x="63.623047"/>
     <use xlink:href="#DejaVuSans-2e" x="127.246094"/>
     <use xlink:href="#DejaVuSans-31" x="159.033203"/>
     <use xlink:href="#DejaVuSans-25" x="222.65625"/>
    </g>
   </g>
   <g id="text_51">
    <!-- Agreement/Mismatch per class (Oracle vs Offload) -->
    <g transform="translate(314.334687 16.318125) scale(0.12 -0.12)">
     <defs>
      <path id="DejaVuSans-41" d="M 2188 4044 
L 1331 1722 
L 3047 1722 
L 2188 4044 
z
M 1831 4666 
L 2547 4666 
L 4325 0 
L 3669 0 
L 3244 1197 
L 1141 1197 
L 716 0 
L 50 0 
L 1831 4666 
z
" transform="scale(0.015625)"/>
      <path id="DejaVuSans-2f" d="M 1625 4666 
L 2156 4666 
L 531 -594 
L 0 -594 
L 1625 4666 
z
" transform="scale(0.015625)"/>
      <path id="DejaVuSans-4d" d="M 628 4666 
L 1569 4666 
L 2759 1491 
L 3956 4666 
L 4897 4666 
L 4897 0 
L 4281 0 
L 4281 4097 
L 3078 897 
L 2444 897 
L 1241 4097 
L 1241 0 
L 628 0 
L 628 4666 
z
" transform="scale(0.015625)"/>
      <path id="DejaVuSans-28" d="M 1984 4856 
Q 1566 4138 1362 3434 
Q 1159 2731 1159 2009 
Q 1159 1288 1364 580 
Q 1569 -128 1984 -844 
L 1484 -844 
Q 1016 -109 783 600 
Q 550 1309 550 2009 
Q 550 2706 781 3412 
Q 1013 4119 1484 4856 
L 1984 4856 
z
" transform="scale(0.015625)"/>
      <path id="DejaVuSans-4f" d="M 2522 4238 
Q 1834 4238 1429 3725 
Q 1025 3213 1025 2328 
Q 1025 1447 1429 934 
Q 1834 422 2522 422 
Q 3209 422 3611 934 
Q 4013 1447 4013 2328 
Q 4013 3213 3611 3725 
Q 3209 4238 2522 4238 
z
M 2522 4750 
Q 3503 4750 4090 4092 
Q 4678 3434 4678 2328 
Q 4678 1225 4090 567 
Q 3503 -91 2522 -91 
Q 1538 -91 948 565 
Q 359 1222 359 2328 
Q 359 3434 948 4092 
Q 1538 4750 2522 4750 
z
" transform="scale(0.015625)"/>
      <path id="DejaVuSans-76" d="M 191 3500 
L 800 3500 
L 1894 563 
L 2988 3500 
L 3597 3500 
L 2284 0 
L 1503 0 
L 191 3500 
z
" transform="scale(0.015625)"/>
      <path id="DejaVuSans-29" d="M 513 4856 
L 1013 4856 
Q 1481 4119 1714 3412 
Q 1947 2706 1947 2009 
Q 1947 1309 1714 600 
Q 1481 -109 1013 -844 
L 513 -844 
Q 928 -128 1133 580 
Q 1338 1288 1338 2009 
Q 1338 2731 1133 3434 
Q 928 4138 513 4856 
z
" transform="scale(0.015625)"/>
     </defs>
     <use xlink:href="#DejaVuSans-41"/>
     <use xlink:href="#DejaVuSans-67" x="68.408203"/>
     <use xlink:href="#DejaVuSans-72" x="131.884766"/>
     <use xlink:href="#DejaVuSans-65" x="170.748047"/>
     <use xlink:href="#DejaVuSans-65" x="232.271484"/>
     <use xlink:href="#DejaVuSans-6d" x="293.794922"/>
     <use xlink:href="#DejaVuSans-65" x="391.207031"/>
     <use xlink:href="#DejaVuSans-6e" x="452.730469"/>
     <use xlink:href="#DejaVuSans-74" x="516.109375"/>
     <use xlink:href="#DejaVuSans-2f" x="555.318359"/>
     <use xlink:href="#DejaVuSans-4d" x="589.009766"/>
     <use xlink:href="#DejaVuSans-69" x="675.289062"/>
     <use xlink:href="#DejaVuSans-73" x="703.072266"/>
     <use xlink:href="#DejaVuSans-6d" x="755.171875"/>
     <use xlink:href="#DejaVuSans-61" x="852.583984"/>
     <use xlink:href="#DejaVuSans-74" x="913.863281"/>
     <use xlink:href="#DejaVuSans-63" x="953.072266"/>
     <use xlink:href="#DejaVuSans-68" x="1008.052734"/>
     <use xlink:href="#DejaVuSans-20" x="1071.431641"/>
     <use xlink:href="#DejaVuSans-70" x="1103.21875"/>
     <use xlink:href="#DejaVuSans-65" x="1166.695312"/>
     <use xlink:href="#DejaVuSans-72" x="1228.21875"/>
     <use xlink:href="#DejaVuSans-20" x="1269.332031"/>
     <use xlink:href="#DejaVuSans-63" x="1301.119141"/>
     <use xlink:href="#DejaVuSans-6c" x="1356.099609"/>
     <use xlink:href="#DejaVuSans-61" x="1383.882812"/>
     <use xlink:href="#DejaVuSans-73" x="1445.162109"/>
     <use xlink:href="#DejaVuSans-73" x="1497.261719"/>
     <use xlink:href="#DejaVuSans-20" x="1549.361328"/>
     <use xlink:href="#DejaVuSans-28" x="1581.148438"/>
     <use xlink:href="#DejaVuSans-4f" x="1620.162109"/>
     <use xlink:href="#DejaVuSans-72" x="1698.873047"/>
     <use xlink:href="#DejaVuSans-61" x="1739.986328"/>
     <use xlink:href="#DejaVuSans-63" x="1801.265625"/>
     <use xlink:href="#DejaVuSans-6c" x="1856.246094"/>
     <use xlink:href="#DejaVuSans-65" x="1884.029297"/>
     <use xlink:href="#DejaVuSans-20" x="1945.552734"/>
     <use xlink:href="#DejaVuSans-76" x="1977.339844"/>
     <use xlink:href="#DejaVuSans-73" x="2036.519531"/>
     <use xlink:href="#DejaVuSans-20" x="2088.619141"/>
     <use xlink:href="#DejaVuSans-4f" x="2120.40625"/>
     <use xlink:href="#DejaVuSans-66" x="2199.117188"/>
     <use xlink:href="#DejaVuSans-66" x="2234.322266"/>
     <use xlink:href="#DejaVuSans-6c" x="2269.527344"/>
     <use xlink:href="#DejaVuSans-6f" x="2297.310547"/>
     <use xlink:href="#DejaVuSans-61" x="2358.492188"/>
     <use xlink:href="#DejaVuSans-64" x="2419.771484"/>
     <use xlink:href="#DejaVuSans-29" x="2483.248047"/>
    </g>
   </g>
   <g id="legend_1">
    <g id="patch_27">
     <path d="M 797.135 59.674375 
L 877.375625 59.674375 
Q 879.375625 59.674375 879.375625 57.674375 
L 879.375625 29.318125 
Q 879.375625 27.318125 877.375625 27.318125 
L 797.135 27.318125 
Q 795.135 27.318125 795.135 29.318125 
L 795.135 57.674375 
Q 795.135 59.674375 797.135 59.674375 
z
" style="fill: #ffffff; opacity: 0.8; stroke: #cccccc; stroke-linejoin: miter"/>
    </g>
    <g id="patch_28">
     <path d="M 799.135 38.916563 
L 819.135 38.916563 
L 819.135 31.916563 
L 799.135 31.916563 
z
" style="fill: #2e8b57; opacity: 0.7"/>
    </g>
    <g id="text_52">
     <!-- Agreed -->
     <g transform="translate(827.135 38.916563) scale(0.1 -0.1)">
      <use xlink:href="#DejaVuSans-41"/>
      <use xlink:href="#DejaVuSans-67" x="68.408203"/>
      <use xlink:href="#DejaVuSans-72" x="131.884766"/>
      <use xlink:href="#DejaVuSans-65" x="170.748047"/>
      <use xlink:href="#DejaVuSans-65" x="232.271484"/>
      <use xlink:href="#DejaVuSans-64" x="293.794922"/>
     </g>
    </g>
    <g id="patch_29">
     <path d="M 799.135 53.594688 
L 819.135 53.594688 
L 819.135 46.594688 
L 799.135 46.594688 
z
" style="fill: #ff8c00; opacity: 0.7"/>
    </g>
    <g id="text_53">
     <!-- Mismatch -->
     <g transform="translate(827.135 53.594688) scale(0.1 -0.1)">
      <use xlink:href="#DejaVuSans-4d"/>
      <use xlink:href="#DejaVuSans-69" x="86.279297"/>
      <use xlink:href="#DejaVuSans-73" x="114.0625"/>
      <use xlink:href="#DejaVuSans-6d" x="166.162109"/>
      <use xlink:href="#DejaVuSans-61" x="263.574219"/>
      <use xlink:href="#DejaVuSans-74" x="324.853516"/>
      <use xlink:href="#DejaVuSans-63" x="364.0625"/>
      <use xlink:href="#DejaVuSans-68" x="419.042969"/>
     </g>
    </g>
   </g>
  </g>
  <g id="axes_2">
   <g id="matplotlib.axis_3">
    <g id="ytick_10">
     <g id="line2d_20">
      <defs>
       <path id="m1a63bad8ea" d="M 0 0 
L 3.5 0 
" style="stroke: #000000; stroke-width: 0.8"/>
      </defs>
      <g>
       <use xlink:href="#m1a63bad8ea" x="884.375625" y="285.60262" style="stroke: #000000; stroke-width: 0.8"/>
      </g>
     </g>
     <g id="text_54">
      <!-- 1.5 -->
      <g style="fill: #ff0000" transform="translate(891.375625 289.401839) scale(0.1 -0.1)">
       <use xlink:href="#DejaVuSans-31"/>
       <use xlink:href="#DejaVuSans-2e" x="63.623047"/>
       <use xlink:href="#DejaVuSans-35" x="95.410156"/>
      </g>
     </g>
    </g>
    <g id="ytick_11">
     <g id="line2d_21">
      <g>
       <use xlink:href="#m1a63bad8ea" x="884.375625" y="245.692889" style="stroke: #000000; stroke-width: 0.8"/>
      </g>
     </g>
     <g id="text_55">
      <!-- 2.0 -->
      <g style="fill: #ff0000" transform="translate(891.375625 249.492108) scale(0.1 -0.1)">
       <use xlink:href="#DejaVuSans-32"/>
       <use xlink:href="#DejaVuSans-2e" x="63.623047"/>
       <use xlink:href="#DejaVuSans-30" x="95.410156"/>
      </g>
     </g>
    </g>
    <g id="ytick_12">
     <g id="line2d_22">
      <g>
       <use xlink:href="#m1a63bad8ea" x="884.375625" y="205.783158" style="stroke: #000000; stroke-width: 0.8"/>
      </g>
     </g>
     <g id="text_56">
      <!-- 2.5 -->
      <g style="fill: #ff0000" transform="translate(891.375625 209.582377) scale(0.1 -0.1)">
       <use xlink:href="#DejaVuSans-32"/>
       <use xlink:href="#DejaVuSans-2e" x="63.623047"/>
       <use xlink:href="#DejaVuSans-35" x="95.410156"/>
      </g>
     </g>
    </g>
    <g id="ytick_13">
     <g id="line2d_23">
      <g>
       <use xlink:href="#m1a63bad8ea" x="884.375625" y="165.873427" style="stroke: #000000; stroke-width: 0.8"/>
      </g>
     </g>
     <g id="text_57">
      <!-- 3.0 -->
      <g style="fill: #ff0000" transform="translate(891.375625 169.672646) scale(0.1 -0.1)">
       <use xlink:href="#DejaVuSans-33"/>
       <use xlink:href="#DejaVuSans-2e" x="63.623047"/>
       <use xlink:href="#DejaVuSans-30" x="95.410156"/>
      </g>
     </g>
    </g>
    <g id="ytick_14">
     <g id="line2d_24">
      <g>
       <use xlink:href="#m1a63bad8ea" x="884.375625" y="125.963696" style="stroke: #000000; stroke-width: 0.8"/>
      </g>
     </g>
     <g id="text_58">
      <!-- 3.5 -->
      <g style="fill: #ff0000" transform="translate(891.375625 129.762915) scale(0.1 -0.1)">
       <use xlink:href="#DejaVuSans-33"/>
       <use xlink:href="#DejaVuSans-2e" x="63.623047"/>
       <use xlink:href="#DejaVuSans-35" x="95.410156"/>
      </g>
     </g>
    </g>
    <g id="ytick_15">
     <g id="line2d_25">
      <g>
       <use xlink:href="#m1a63bad8ea" x="884.375625" y="86.053965" style="stroke: #000000; stroke-width: 0.8"/>
      </g>
     </g>
     <g id="text_59">
      <!-- 4.0 -->
      <g style="fill: #ff0000" transform="translate(891.375625 89.853184) scale(0.1 -0.1)">
       <use xlink:href="#DejaVuSans-34"/>
       <use xlink:href="#DejaVuSans-2e" x="63.623047"/>
       <use xlink:href="#DejaVuSans-30" x="95.410156"/>
      </g>
     </g>
    </g>
    <g id="ytick_16">
     <g id="line2d_26">
      <g>
       <use xlink:href="#m1a63bad8ea" x="884.375625" y="46.144234" style="stroke: #000000; stroke-width: 0.8"/>
      </g>
     </g>
     <g id="text_60">
      <!-- 4.5 -->
      <g style="fill: #ff0000" transform="translate(891.375625 49.943453) scale(0.1 -0.1)">
       <use xlink:href="#DejaVuSans-34"/>
       <use xlink:href="#DejaVuSans-2e" x="63.623047"/>
       <use xlink:href="#DejaVuSans-35" x="95.410156"/>
      </g>
     </g>
    </g>
    <g id="text_61">
     <!-- % mismatch (of all samples) -->
     <g style="fill: #ff0000" transform="translate(918.877188 232.613826) rotate(-90) scale(0.1 -0.1)">
      <use xlink:href="#DejaVuSans-25"/>
      <use xlink:href="#DejaVuSans-20" x="95.019531"/>
      <use xlink:href="#DejaVuSans-6d" x="126.806641"/>
      <use xlink:href="#DejaVuSans-69" x="224.21875"/>
      <use xlink:href="#DejaVuSans-73" x="252.001953"/>
      <use xlink:href="#DejaVuSans-6d" x="304.101562"/>
      <use xlink:href="#DejaVuSans-61" x="401.513672"/>
      <use xlink:href="#DejaVuSans-74" x="462.792969"/>
      <use xlink:href="#DejaVuSans-63" x="502.001953"/>
      <use xlink:href="#DejaVuSans-68" x="556.982422"/>
      <use xlink:href="#DejaVuSans-20" x="620.361328"/>
      <use xlink:href="#DejaVuSans-28" x="652.148438"/>
      <use xlink:href="#DejaVuSans-6f" x="691.162109"/>
      <use xlink:href="#DejaVuSans-66" x="752.34375"/>
      <use xlink:href="#DejaVuSans-20" x="787.548828"/>
      <use xlink:href="#DejaVuSans-61" x="819.335938"/>
      <use xlink:href="#DejaVuSans-6c" x="880.615234"/>
      <use xlink:href="#DejaVuSans-6c" x="908.398438"/>
      <use xlink:href="#DejaVuSans-20" x="936.181641"/>
      <use xlink:href="#DejaVuSans-73" x="967.96875"/>
      <use xlink:href="#DejaVuSans-61" x="1020.068359"/>
      <use xlink:href="#DejaVuSans-6d" x="1081.347656"/>
      <use xlink:href="#DejaVuSans-70" x="1178.759766"/>
      <use xlink:href="#DejaVuSans-6c" x="1242.236328"/>
      <use xlink:href="#DejaVuSans-65" x="1270.019531"/>
      <use xlink:href="#DejaVuSans-73" x="1331.542969"/>
      <use xlink:href="#DejaVuSans-29" x="1383.642578"/>
     </g>
    </g>
   </g>
   <g id="line2d_27">
    <path d="M 112.498647 216.957883 
L 190.981309 287.997204 
L 269.463971 96.430495 
L 347.946632 34.96951 
L 426.429294 183.433709 
L 504.911956 65.300905 
L 583.394618 239.307332 
L 661.877279 264.051366 
L 740.359941 273.629701 
L 818.842603 228.930802 
" clip-path="url(#p46616f5c9c)" style="fill: none; stroke-dasharray: 5.55,2.4; stroke-dashoffset: 0; stroke: #ff0000; stroke-width: 1.5"/>
    <defs>
     <path id="mf10a98c85b" d="M 0 3 
C 0.795609 3 1.55874 2.683901 2.12132 2.12132 
C 2.683901 1.55874 3 0.795609 3 0 
C 3 -0.795609 2.683901 -1.55874 2.12132 -2.12132 
C 1.55874 -2.683901 0.795609 -3 0 -3 
C -0.795609 -3 -1.55874 -2.683901 -2.12132 -2.12132 
C -2.683901 -1.55874 -3 -0.795609 -3 0 
C -3 0.795609 -2.683901 1.55874 -2.12132 2.12132 
C -1.55874 2.683901 -0.795609 3 0 3 
z
" style="stroke: #ff0000"/>
    </defs>
    <g clip-path="url(#p46616f5c9c)">
     <use xlink:href="#mf10a98c85b" x="112.498647" y="216.957883" style="fill: #ff0000; stroke: #ff0000"/>
     <use xlink:href="#mf10a98c85b" x="190.981309" y="287.997204" style="fill: #ff0000; stroke: #ff0000"/>
     <use xlink:href="#mf10a98c85b" x="269.463971" y="96.430495" style="fill: #ff0000; stroke: #ff0000"/>
     <use xlink:href="#mf10a98c85b" x="347.946632" y="34.96951" style="fill: #ff0000; stroke: #ff0000"/>
     <use xlink:href="#mf10a98c85b" x="426.429294" y="183.433709" style="fill: #ff0000; stroke: #ff0000"/>
     <use xlink:href="#mf10a98c85b" x="504.911956" y="65.300905" style="fill: #ff0000; stroke: #ff0000"/>
     <use xlink:href="#mf10a98c85b" x="583.394618" y="239.307332" style="fill: #ff0000; stroke: #ff0000"/>
     <use xlink:href="#mf10a98c85b" x="661.877279" y="264.051366" style="fill: #ff0000; stroke: #ff0000"/>
     <use xlink:href="#mf10a98c85b" x="740.359941" y="273.629701" style="fill: #ff0000; stroke: #ff0000"/>
     <use xlink:href="#mf10a98c85b" x="818.842603" y="228.930802" style="fill: #ff0000; stroke: #ff0000"/>
    </g>
   </g>
   <g id="patch_30">
    <path d="M 46.965625 300.648589 
L 46.965625 22.318125 
" style="fill: none; stroke: #000000; stroke-width: 0.8; stroke-linejoin: miter; stroke-linecap: square"/>
   </g>
   <g id="patch_31">
    <path d="M 884.375625 300.648589 
L 884.375625 22.318125 
" style="fill: none; stroke: #000000; stroke-width: 0.8; stroke-linejoin: miter; stroke-linecap: square"/>
   </g>
   <g id="patch_32">
    <path d="M 46.965625 300.648589 
L 884.375625 300.648589 
" style="fill: none; stroke: #000000; stroke-width: 0.8; stroke-linejoin: miter; stroke-linecap: square"/>
   </g>
   <g id="patch_33">
    <path d="M 46.965625 22.318125 
L 884.375625 22.318125 
" style="fill: none; stroke: #000000; stroke-width: 0.8; stroke-linejoin: miter; stroke-linecap: square"/>
   </g>
   <g id="legend_2">
    <g id="patch_34">
     <path d="M 53.965625 44.99625 
L 194.6625 44.99625 
Q 196.6625 44.99625 196.6625 42.99625 
L 196.6625 29.318125 
Q 196.6625 27.318125 194.6625 27.318125 
L 53.965625 27.318125 
Q 51.965625 27.318125 51.965625 29.318125 
L 51.965625 42.99625 
Q 51.965625 44.99625 53.965625 44.99625 
z
" style="fill: #ffffff; opacity: 0.8; stroke: #cccccc; stroke-linejoin: miter"/>
    </g>
    <g id="line2d_28">
     <path d="M 55.965625 35.416563 
L 65.965625 35.416563 
L 75.965625 35.416563 
" style="fill: none; stroke-dasharray: 5.55,2.4; stroke-dashoffset: 0; stroke: #ff0000; stroke-width: 1.5"/>
     <g>
      <use xlink:href="#mf10a98c85b" x="65.965625" y="35.416563" style="fill: #ff0000; stroke: #ff0000"/>
     </g>
    </g>
    <g id="text_62">
     <!-- % mismatch (of total) -->
     <g transform="translate(83.965625 38.916563) scale(0.1 -0.1)">
      <use xlink:href="#DejaVuSans-25"/>
      <use xlink:href="#DejaVuSans-20" x="95.019531"/>
      <use xlink:href="#DejaVuSans-6d" x="126.806641"/>
      <use xlink:href="#DejaVuSans-69" x="224.21875"/>
      <use xlink:href="#DejaVuSans-73" x="252.001953"/>
      <use xlink:href="#DejaVuSans-6d" x="304.101562"/>
      <use xlink:href="#DejaVuSans-61" x="401.513672"/>
      <use xlink:href="#DejaVuSans-74" x="462.792969"/>
      <use xlink:href="#DejaVuSans-63" x="502.001953"/>
      <use xlink:href="#DejaVuSans-68" x="556.982422"/>
      <use xlink:href="#DejaVuSans-20" x="620.361328"/>
      <use xlink:href="#DejaVuSans-28" x="652.148438"/>
      <use xlink:href="#DejaVuSans-6f" x="691.162109"/>
      <use xlink:href="#DejaVuSans-66" x="752.34375"/>
      <use xlink:href="#DejaVuSans-20" x="787.548828"/>
      <use xlink:href="#DejaVuSans-74" x="819.335938"/>
      <use xlink:href="#DejaVuSans-6f" x="858.544922"/>
      <use xlink:href="#DejaVuSans-74" x="919.726562"/>
      <use xlink:href="#DejaVuSans-61" x="958.935547"/>
      <use xlink:href="#DejaVuSans-6c" x="1020.214844"/>
      <use xlink:href="#DejaVuSans-29" x="1047.998047"/>
     </g>
    </g>
   </g>
  </g>
 </g>
 <defs>
  <clipPath id="p46616f5c9c">
   <rect x="46.965625" y="22.318125" width="837.41" height="278.330464"/>
  </clipPath>
 </defs>
</svg>
